<svg width="102" height="94" viewBox="0 0 102 94" fill="none" xmlns="http://www.w3.org/2000/svg">
<path d="M8.36682 53.585C3.8393 54.722 2.23581 57.3749 2 58.5593C14.4507 57.9908 21.8079 67.7972 23.9302 72.7714C26.7019 78.7681 31.9703 83.0705 38.0787 86.104C48.1843 91.1226 60.5889 92.6684 67.7905 92.6684C68.0263 93.6159 68.0735 93.0948 66.3756 83.4305C64.6778 73.7663 53.4062 69.4552 47.9826 68.5078C55.3398 69.6447 61.4237 68.034 63.5459 67.0865C61.2822 67.0865 59.773 65.6653 59.3014 64.9547C75.7136 64.3862 82.6464 57.138 84.0612 53.585C78.9678 56.9959 74.3931 56.4274 72.7425 55.7168C90.8525 49.4635 95.38 37.4779 95.38 32.2668C92.5503 36.2462 86.1835 36.7673 83.3538 36.5304C102.596 20.6128 101.275 6.21113 98.2097 1C98.9172 4.78991 96.5119 13.0803 81.2316 15.9228C62.1311 19.4758 51.5197 31.5561 47.9826 42.9259C44.4455 54.2956 45.1529 54.2956 40.2009 56.4274C36.2393 58.1329 29.5896 53.3481 26.7599 50.7426C26.2882 48.8476 23.7887 45.1998 17.5633 45.7683C11.338 46.3368 8.83844 51.2163 8.36682 53.585Z" stroke="white" stroke-width="2"/>
</svg>
