<svg width="121" height="127" viewBox="0 0 121 127" fill="none" xmlns="http://www.w3.org/2000/svg">
<path d="M38.4358 38.6303C42.6862 31.9675 48.6445 27.3259 51.0924 25.838L112.525 92.4355L38.4358 38.6303Z" stroke="white" stroke-width="2"/>
<path d="M45.4801 66.5062C46.4119 61.7591 49.5557 58.7091 51.0112 57.7775L113.015 96.1103L45.4801 66.5062Z" stroke="white" stroke-width="2"/>
<path d="M21.671 93.1594C20.8101 82.6876 23.2837 75.3445 24.6281 72.9819L114.051 99.1426L21.671 93.1594Z" stroke="white" stroke-width="2"/>
<path d="M75.1231 43.4835C77.4125 40.5536 81.3176 39.0797 82.984 38.7089L114.628 89.6323L75.1231 43.4835Z" stroke="white" stroke-width="2"/>
<path d="M72.4869 8.89291L117.37 88.6952L85.3386 1.77227L85.227 1.46936C79.4675 0.982574 74.3339 6.21556 72.4869 8.89291Z" stroke="white" stroke-width="2"/>
</svg>
